<svg xmlns="http://www.w3.org/2000/svg" width="754.49" height="501" viewBox="0 0 754.49 501">
  <g id="undraw_page_not_found_re_e9o6" transform="translate(-0.005)">
    <path id="Path_16" data-name="Path 16" d="M580.78,321.065c-6.727-11.127-14.7-23.006-27.183-26.64-14.458-4.207-29.309,4.151-41.907,12.4A1221.145,1221.145,0,0,0,403.013,386.9l.038.432,81.1-5.592c19.531-1.347,39.732-2.88,56.992-12.119,6.549-3.506,12.934-8.189,20.355-8.516,9.221-.405,17.261,6.034,23.579,12.762,37.374,39.8,48.19,100.66,90.12,135.626A1330.665,1330.665,0,0,0,580.78,321.065Z" transform="translate(-198.56 -180.254)" fill="#f2f2f2"/>
    <path id="Path_17" data-name="Path 17" d="M797.948,654.993c-4.133-5.219-5.822-6.441-9.9-11.708q-49.793-64.4-93.6-133.149-29.757-46.692-56.563-95.178Q625.123,391.908,613.06,368.5q-9.36-18.153-18.3-36.524c-1.7-3.5-3.361-7.012-5.01-10.534-3.884-8.283-7.7-16.605-11.789-24.776-4.664-9.312-10.341-19.074-18.906-25.33a25.794,25.794,0,0,0-13.437-5.171c-6.972-.45-13.4,2.429-19.452,5.573a626.186,626.186,0,0,0-123.13,84.909A641.025,641.025,0,0,0,303,467.685c-.884,1.263-2.975.056-2.083-1.214q5.271-7.454,10.751-14.748A644.569,644.569,0,0,1,476.228,298.229q16.007-10.373,32.616-19.774c5.581-3.16,11.186-6.28,16.887-9.207,5.589-2.871,11.523-5.452,17.908-5.549,21.728-.338,32.978,24.269,40.706,40.826q3.643,7.816,7.374,15.584,14.1,29.492,29.287,58.445,9.372,17.876,19.155,35.543,30.444,55.015,64.717,107.8c30.268,46.616,60.294,87.8,94.776,131.388C800.6,654.495,798.905,656.216,797.948,654.993Z" transform="translate(-185.994 -176.618)" fill="#e4e4e4"/>
    <path id="Path_18" data-name="Path 18" d="M387.592,350.228c-1.262-1.407-2.517-2.814-3.787-4.222-10.02-11.081-20.771-22.033-34.53-28.386a50.1,50.1,0,0,0-20.988-4.865c-7.511.024-14.852,1.994-21.792,4.752-3.281,1.311-6.49,2.8-9.65,4.383-3.611,1.817-7.157,3.755-10.687,5.709q-9.939,5.5-19.621,11.483-19.263,11.905-37.32,25.628-9.36,7.117-18.335,14.7-8.347,7.044-16.356,14.466c-1.142,1.053-2.847-.651-1.7-1.7,1.407-1.311,2.831-2.613,4.254-3.9q6.031-5.452,12.255-10.7,11.35-9.577,23.288-18.415,18.564-13.751,38.406-25.636,9.915-5.934,20.1-11.371c2.051-1.094,4.126-2.163,6.224-3.176a99.22,99.22,0,0,1,14.8-6.023,52.637,52.637,0,0,1,22.347-2.2,58.181,58.181,0,0,1,20.618,7.133c13.509,7.551,23.987,19.227,34.184,30.622C390.326,349.672,388.63,351.385,387.592,350.228Z" transform="translate(-172.698 -182.355)" fill="#e4e4e4"/>
    <path id="Path_19" data-name="Path 19" d="M730.272,482.986l32.372-11.84,16.073-5.879c5.235-1.915,10.457-4.094,15.868-5.465a25.034,25.034,0,0,1,14.363.183,33.1,33.1,0,0,1,11.2,6.944,90.913,90.913,0,0,1,9.188,9.813c3.5,4.205,6.947,8.455,10.41,12.69q21.44,26.22,42.6,52.667t42.034,53.119q20.927,26.737,41.566,53.7,2.528,3.3,5.052,6.609c.93,1.218,3.026.017,2.083-1.218q-20.792-27.232-41.873-54.24-21.133-27.073-42.558-53.917T845.514,492.7q-5.41-6.629-10.837-13.244c-3.052-3.72-6.07-7.48-9.418-10.942-6.145-6.355-13.822-11.972-23.012-12.124-5.4-.09-10.632,1.625-15.652,3.441-5.412,1.958-10.811,3.952-16.216,5.929l-32.6,11.923-8.15,2.981c-1.446.529-.822,2.861.641,2.326Z" transform="translate(-238.575 -200.284)" fill="#e4e4e4"/>
    <path id="Path_20" data-name="Path 20" d="M359.007,333.771c-16.451-8.455-37.518-6.8-52.635,3.764a750.729,750.729,0,0,1,85.412,19.935C380.132,350.642,371.018,339.944,359.007,333.771Z" transform="translate(-186.691 -184.562)" fill="#f2f2f2"/>
    <path id="Path_21" data-name="Path 21" d="M305.745,338.784l-3.167,2.574c1.071-.9,2.185-1.746,3.329-2.545Z" transform="translate(-186.225 -185.841)" fill="#f2f2f2"/>
    <path id="Path_22" data-name="Path 22" d="M829.33,485.514c-3.187-3.879-6.632-7.94-11.4-9.516l-4.45.176a504.761,504.761,0,0,0,134.443,153.7Z" transform="translate(-248.974 -202.693)" fill="#f2f2f2"/>
    <path id="Path_23" data-name="Path 23" d="M515.666,450.367a32.878,32.878,0,0,0,13.1,18.384c2.474,1.684,5.4,3.3,6.247,6.171a7.35,7.35,0,0,1-.766,5.395,21.826,21.826,0,0,1-3.387,4.422l-.12.449c-6.139-3.638-11.979-8.24-15.37-14.518s-3.864-14.508.3-20.3" transform="translate(-212.03 -199.545)" fill="#f2f2f2"/>
    <path id="Path_24" data-name="Path 24" d="M748.666,653.367a32.878,32.878,0,0,0,13.1,18.384c2.474,1.684,5.4,3.3,6.247,6.171a7.349,7.349,0,0,1-.766,5.395,21.826,21.826,0,0,1-3.387,4.422l-.12.449c-6.139-3.638-11.979-8.24-15.37-14.518s-3.864-14.508.3-20.3" transform="translate(-240.647 -224.478)" fill="#f2f2f2"/>
    <path id="Path_25" data-name="Path 25" d="M283.666,639.367a32.877,32.877,0,0,0,13.1,18.384c2.474,1.684,5.4,3.3,6.247,6.171a7.349,7.349,0,0,1-.766,5.395,21.827,21.827,0,0,1-3.387,4.422l-.12.449c-6.139-3.638-11.979-8.24-15.37-14.518s-3.864-14.508.3-20.3" transform="translate(-183.536 -222.758)" fill="#f2f2f2"/>
    <circle id="Ellipse_37" data-name="Ellipse 37" cx="44.736" cy="44.736" r="44.736" transform="translate(524.773)" fill="#050605"/>
    <path id="Path_26" data-name="Path 26" d="M898.884,176.234c-21.681-2.931-46.434,8.788-52.053,29.932a18.944,18.944,0,0,0-36.046,1.85l2.482,1.778a326.553,326.553,0,0,0,140.927-.637C939.111,193.307,920.564,179.164,898.884,176.234Z" transform="translate(-248.643 -165.822)" fill="#f0f0f0"/>
    <path id="Path_27" data-name="Path 27" d="M792.884,244.234c-21.681-2.931-46.434,8.788-52.053,29.932a18.944,18.944,0,0,0-36.046,1.85l2.482,1.778a326.552,326.552,0,0,0,140.927-.637C833.111,261.307,814.564,247.164,792.884,244.234Z" transform="translate(-235.624 -174.173)" fill="#f0f0f0"/>
    <path id="Path_28" data-name="Path 28" d="M917.426,248.794a.863.863,0,0,1-.265-.041C685.225,175.4,480.808,185,350.166,205.958c-17.779,2.852-35.606,6.145-52.985,9.79-4.437.929-9.04,1.926-13.681,2.963-5.543,1.234-11.012,2.506-16.256,3.777q-3.4.8-6.662,1.622c-3.3.814-6.642,1.662-10.228,2.594-4.007,1.033-8.078,2.117-12.1,3.221l-.045.013h0c-4.546,1.241-9.068,2.518-13.441,3.794-2.367.684-4.652,1.358-6.841,2.023-.245.068-.461.133-.681.2l-.47.143c-.272.083-.541.164-.81.242l-.017.005h0l-.712.221c-.849.257-1.677.508-2.492.758-21.53,6.637-33.366,11.359-33.483,11.405a.877.877,0,1,1-.653-1.628c.118-.046,12.012-4.792,33.62-11.454.818-.251,1.648-.5,2.5-.76l.661-.206c.023-.009.045-.015.069-.022.268-.076.535-.158.807-.24l.471-.143c.235-.071.466-.141.7-.206,2.174-.661,4.467-1.337,6.84-2.023,4.375-1.276,8.9-2.554,13.451-3.8l.043-.013h0c4.039-1.108,8.125-2.2,12.145-3.232,3.591-.933,6.943-1.783,10.245-2.6q3.279-.816,6.675-1.625c5.25-1.273,10.73-2.546,16.283-3.783,4.648-1.038,9.259-2.037,13.7-2.967,17.406-3.651,35.261-6.95,53.067-9.806,130.83-20.992,335.539-30.6,567.8,42.854a.877.877,0,0,1-.264,1.713Z" transform="translate(-170.931 -167.455)" fill="#ccc"/>
    <path id="Path_29" data-name="Path 29" d="M409.533,571.3a5.9,5.9,0,0,0-1.491-2.342,5.632,5.632,0,0,0-.807-.623c-2.289-1.526-5.71-1.868-7.886,0a5.1,5.1,0,0,0-.605.623q-.974,1.2-2,2.342c-1.123,1.281-2.272,2.518-3.474,3.719-.342.333-.684.675-1.035,1.009-.2.2-.4.395-.605.588-.772.737-1.561,1.447-2.36,2.149-.421.377-.842.746-1.272,1.105-.64.535-1.281,1.07-1.93,1.588-.061.044-.123.088-.184.14-.018.009-.026.026-.044.035s-.018,0-.026.018a.155.155,0,0,0-.061.044c-.193.132-.325.219-.421.3.035-.018.07-.044.105-.061-.158.123-.325.246-.482.368-1.535,1.131-3.105,2.219-4.71,3.237a87.012,87.012,0,0,1-12.473,6.623c-.289.114-.588.237-.886.351a75.412,75.412,0,0,1-35.833,5.281q-1.868-.145-3.737-.395c-1.439-.211-2.868-.465-4.289-.754a85.9,85.9,0,0,1-15.807-4.772A104.077,104.077,0,0,1,289.1,581.243c-.877-.623-1.763-1.246-2.649-1.851,1.009-2.474,2-4.947,2.965-7.438.482-1.2.947-2.4,1.4-3.614,3.588-9.324,6.956-18.737,10.184-28.184q4.895-14.355,9.237-28.877.447-1.474.868-2.947,2.276-7.671,4.368-15.377c.132-.5.272-.991.395-1.491q.605-2.211,1.184-4.421c.877-3.324-1.105-7.3-4.6-8.1a6.7,6.7,0,0,0-8.088,4.6c-.377,1.421-.754,2.833-1.14,4.254q-2.776,10.3-5.842,20.535l-.895,2.947q-6.763,22.289-14.851,44.131-.974,2.645-1.974,5.272c-.325.86-.649,1.719-.982,2.579-.64,1.693-1.3,3.386-1.956,5.079-.377.991-.763,1.982-1.149,2.965-.254.623-.5,1.246-.746,1.86a36.676,36.676,0,0,0-7.728-1.86l-.421-.053a24.03,24.03,0,0,0-6.149.053,20.977,20.977,0,0,0-15.123,9.351c-4.184,6.588-4.132,16.008,1.737,21.6,6.044,5.763,15.193,5.719,22.307,2.114a24.869,24.869,0,0,0,9.228-8.649,44.364,44.364,0,0,0,2.4-4.079c.184.123.368.246.553.377.7.491,1.4.991,2.1,1.482a98.009,98.009,0,0,0,12.728,7.816,95.052,95.052,0,0,0,30.368,9.184c.237.026.465.061.7.088,1.167.149,2.342.263,3.517.36a91.036,91.036,0,0,0,48.754-9.965q1.908-.987,3.781-2.07,2.908-1.684,5.684-3.579c1.009-.684,1.991-1.377,2.965-2.105a88.631,88.631,0,0,0,11.851-10.482q2.066-2.171,3.956-4.482a7.071,7.071,0,0,0,1.93-4.649A6.635,6.635,0,0,0,409.533,571.3ZM264.281,592.2c.184-.132.368-.272.544-.412C264.772,591.918,264.518,592.068,264.281,592.2Zm2.816-2.833c-.2.228-.386.456-.588.684a20.5,20.5,0,0,1-1.974,1.93c-.1.088-.2.175-.307.254a.009.009,0,0,0-.009.009,3.337,3.337,0,0,0-.368.193q-.566.342-1.158.632a14.914,14.914,0,0,1-2.377.658,14.738,14.738,0,0,1-1.868.018h-.018a13.019,13.019,0,0,1-1.272-.351c-.211-.105-.412-.228-.614-.351-.079-.07-.149-.14-.193-.184a2.145,2.145,0,0,1-.237-.254.009.009,0,0,0,0-.006.009.009,0,0,0-.006,0c-.1-.175-.2-.351-.3-.526a.027.027,0,0,1-.009-.018c-.07-.219-.132-.447-.184-.675a10.973,10.973,0,0,1,.009-1.2,11.809,11.809,0,0,1,.474-1.649,9.719,9.719,0,0,1,.605-1.105c.018-.035.105-.175.2-.333.009-.009.009-.009.009-.018.132-.149.263-.307.4-.447.237-.263.491-.491.746-.728a15.82,15.82,0,0,1,1.535-.886,17.094,17.094,0,0,1,2.57-.693,21.924,21.924,0,0,1,3.868.035,26.593,26.593,0,0,1,3.6.886,32.41,32.41,0,0,1-2.43,3.982C267.167,589.269,267.132,589.322,267.1,589.366Zm-9.754-2.886a1.913,1.913,0,0,1-.272.342,1.236,1.236,0,0,1,.272-.342Z" transform="translate(-178.844 -203.029)" fill="#050605"/>
    <path id="Path_30" data-name="Path 30" d="M400.173,481.215q-.118,4.132-.237,8.263-.25,9.171-.518,18.351-.276,10.329-.579,20.649-.145,5.329-.3,10.658-.408,14.355-.807,28.7c-.026.991-.061,1.974-.088,2.965l-.395,14.237q-.224,7.724-.439,15.447-.158,5.789-.325,11.588-1.184,42.013-2.368,84.025a6.709,6.709,0,0,1-6.579,6.579,6.633,6.633,0,0,1-6.579-6.579q.658-23.631,1.333-47.262.592-21.368,1.2-42.736.2-7.039.395-14.088.3-10.605.6-21.21c.026-.991.061-1.974.088-2.965.018-.868.044-1.728.07-2.6q.579-20.592,1.158-41.192.237-8.105.456-16.219.263-9.25.526-18.491c.079-2.71.149-5.412.228-8.123a6.709,6.709,0,0,1,6.579-6.579A6.633,6.633,0,0,1,400.173,481.215Z" transform="translate(-195.852 -202.526)" fill="#050605"/>
    <path id="Path_31" data-name="Path 31" d="M805.626,483.544a783.517,783.517,0,0,1-24.7,77.14c-2.638,6.97-5.336,13.927-8.221,20.8l.663-1.572a47.877,47.877,0,0,1-4.9,9.308q-.2.282-.409.558,1.022-1.307.388-.517c-.223.264-.443.528-.673.786a20.741,20.741,0,0,1-1.973,1.933q-.264.226-.537.442l.823-.64c-.1.225-.766.524-.974.652A16.01,16.01,0,0,1,763,593.5l1.572-.663a16.739,16.739,0,0,1-3.711,1.018l1.749-.235a14.93,14.93,0,0,1-3.77.04l1.749.235a12.284,12.284,0,0,1-2.987-.8l1.572.663a10.538,10.538,0,0,1-1.473-.786c-.238-.155-.97-.709-.013.022.994.76.128.065-.077-.137-.17-.168-.324-.351-.491-.522-.774-.793.874,1.365.348.437a15.95,15.95,0,0,1-.77-1.436l.663,1.572a10.462,10.462,0,0,1-.639-2.326l.235,1.749a11.967,11.967,0,0,1,0-2.987l-.235,1.749a14.009,14.009,0,0,1,.873-3.228l-.663,1.572a14.683,14.683,0,0,1,1.033-2.016,5.906,5.906,0,0,1,.639-.94c.043.014-1.113,1.327-.5.664.16-.173.311-.356.473-.528.26-.275.538-.527.812-.788.916-.872-1.282.847-.225.157a16.708,16.708,0,0,1,2.412-1.315l-1.572.663a17.817,17.817,0,0,1,4.382-1.175l-1.749.235a22.484,22.484,0,0,1,5.667.067l-1.749-.235a29.136,29.136,0,0,1,6.923,1.947l-1.572-.663c4.728,2.03,8.915,5.043,13.095,8a98.2,98.2,0,0,0,12.725,7.813,95.078,95.078,0,0,0,30.37,9.187A91.168,91.168,0,0,0,909.3,578.27a7.085,7.085,0,0,0,1.927-4.652,6.7,6.7,0,0,0-1.927-4.652c-2.414-2.216-6.973-2.841-9.3,0a83.886,83.886,0,0,1-7.111,7.655q-1.77,1.679-3.634,3.254-1.065.9-2.159,1.764c-.345.273-1.42,1,.231-.173-.378.269-.741.562-1.115.837a87.072,87.072,0,0,1-17.835,10.145l1.572-.663a84.94,84.94,0,0,1-21.2,5.809l1.749-.235a85.657,85.657,0,0,1-22.591-.033l1.749.235a87.546,87.546,0,0,1-21.8-5.939l1.572.663a101.773,101.773,0,0,1-19.067-11.045,76.219,76.219,0,0,0-9.748-6.135,37.563,37.563,0,0,0-12.665-3.849c-8.28-.974-16.717,2.251-21.268,9.4-4.189,6.583-4.135,16,1.731,21.6,6.042,5.765,15.191,5.717,22.312,2.11,6.857-3.473,10.976-10.689,13.873-17.493,6.518-15.311,12.289-30.976,17.666-46.721q7.979-23.365,14.472-47.2.8-2.952,1.585-5.911c.878-3.323-1.106-7.3-4.595-8.093a6.7,6.7,0,0,0-8.093,4.595Z" transform="translate(-240.408 -203.03)" fill="#050605"/>
    <path id="Path_32" data-name="Path 32" d="M888.276,481.215l-2.368,84.028-2.356,83.59L882.221,696.1a6.636,6.636,0,0,0,6.579,6.579,6.71,6.71,0,0,0,6.579-6.579l2.368-84.028,2.356-83.59,1.332-47.266a6.636,6.636,0,0,0-6.579-6.579,6.71,6.71,0,0,0-6.579,6.579Z" transform="translate(-257.417 -202.526)" fill="#050605"/>
    <path id="Path_33" data-name="Path 33" d="M615.115,676.621h2.043V583.6h47.656v-2.038H617.157V542.317h36.8q-.809-1.029-1.666-2.032H617.157V514.361c-.676-.288-1.357-.566-2.043-.828v26.751H575.069V507.07c-.686.031-1.362.079-2.043.136v33.078H541.079V515.5c-.686.3-1.362.623-2.032.959v23.823H512.191v2.032h26.856v39.249H512.191V583.6h26.856v93.018h2.032V583.6a31.942,31.942,0,0,1,31.947,31.953v61.064h2.043V583.6h40.045ZM541.08,581.565V542.317h31.947v39.249Zm33.99,0V542.317h.8a39.246,39.246,0,0,1,39.244,39.246Z" transform="translate(-211.97 -206.509)" opacity="0.2"/>
    <path id="Path_34" data-name="Path 34" d="M610.492,662.244A55.314,55.314,0,0,1,592.9,691.805c-.649.561-1.3,1.105-1.974,1.64q-2.461.224-4.886.456c-1.342.123-2.667.254-3.982.377l-.237.026-.167-1.439-.667-5.824a33,33,0,0,1-2.895-28.456c2.316-6.246,6.509-11.763,10.631-17.237,5.693-7.561,11.228-15.035,11.43-24.254a53.107,53.107,0,0,1,6.93,11.693A14.414,14.414,0,0,0,602.6,632.1c-.36.395-.719.947-.474,1.421.21.4.737.5,1.193.553l3.3.342c.877.1,1.754.184,2.632.281a56.129,56.129,0,0,1,2.149,10.684A53.67,53.67,0,0,1,610.492,662.244Z" transform="translate(-219.823 -220.023)" fill="#050605"/>
    <path id="Path_35" data-name="Path 35" d="M640.444,642.346c-5.175,3.763-8.2,9.175-10.552,15.14A14.586,14.586,0,0,0,623.6,661.5c-.36.395-.719.947-.474,1.421.211.4.737.5,1.193.553l3.3.342c-2.351,7.052-4.509,14.351-8.667,20.307A32.448,32.448,0,0,1,608.4,693.7a33.765,33.765,0,0,1-3.526,1.745q-6.684.513-13.114,1.1-2.46.224-4.886.456c-1.342.123-2.667.254-3.982.377q-.013-.724,0-1.447a55.528,55.528,0,0,1,13.377-34.964c.395-.456.8-.9,1.211-1.351a54.2,54.2,0,0,1,14.745-11.14,54.959,54.959,0,0,1,28.219-6.123Z" transform="translate(-220.652 -223.115)" fill="#e4021b"/>
    <path id="Path_36" data-name="Path 36" d="M585.849,689.388l-1.009,2.982-.509,1.518c-1.342.123-2.667.254-3.982.377l-.237.026-4.351.447c-.377-.439-.754-.886-1.123-1.342a54.412,54.412,0,0,1,7.079-76.411c-1.158,6.061.193,11.868,2.412,17.631-.237.1-.465.193-.684.3a14.415,14.415,0,0,0-4.491,3.307c-.36.395-.719.947-.474,1.421.21.4.737.5,1.193.553l3.3.342c.877.1,1.754.184,2.632.281l1.237.132c.061.132.114.254.175.386,2.5,5.421,5.193,10.868,6.71,16.517a38.293,38.293,0,0,1,.895,4.307A32.986,32.986,0,0,1,585.849,689.388Z" transform="translate(-218.109 -220.009)" fill="#050605"/>
    <path id="Path_37" data-name="Path 37" d="M664.436,547.108a97.179,97.179,0,0,0-33.01-36.231,100.207,100.207,0,0,0-46.107-16.122q-3.237-.294-6.49-.345c-2.563-.038-41.11,11.08-54.023,20.159a100.258,100.258,0,0,0-30.993,34.672,89.911,89.911,0,0,0-10.636,45.292,99.617,99.617,0,0,0,12.9,45.154,96.908,96.908,0,0,0,31.968,33.987c13.455,8.584,26.969,31.346,42.854,32.15,16,.81,34.258-20.662,48.855-27.181a91.6,91.6,0,0,0,36.6-29.829,96.709,96.709,0,0,0,17.192-42.936c2.258-15.862,1.205-32.221-4.211-47.382a98.125,98.125,0,0,0-4.895-11.389,6.624,6.624,0,0,0-9-2.36,6.737,6.737,0,0,0-2.36,9q1.375,2.708,2.557,5.507l-.663-1.572a88.727,88.727,0,0,1,6.032,22.4l-.235-1.749a95.819,95.819,0,0,1-.058,25.16l.235-1.749a96.258,96.258,0,0,1-6.627,24.275l.663-1.572a91.412,91.412,0,0,1-5.852,11.49q-1.687,2.794-3.579,5.457c-.554.779-1.125,1.545-1.7,2.308-.751,1,1.024-1.3.248-.324-.132.166-.264.333-.4.5q-.6.747-1.212,1.48a82.112,82.112,0,0,1-8.927,9.108q-1.2,1.046-2.437,2.045c-.411.332-.818.678-1.246.987.016-.012,1.386-1.052.575-.448-.255.19-.507.383-.763.572q-2.552,1.891-5.241,3.589A90.765,90.765,0,0,1,611.5,667.98l1.572-.663a95.8,95.8,0,0,1-24.207,6.624l1.749-.235a94.864,94.864,0,0,1-25.078.044l1.749.235a87.577,87.577,0,0,1-22.013-5.951l1.572.663a82.131,82.131,0,0,1-11.768-6.132q-2.785-1.754-5.424-3.726c-.251-.187-.5-.378-.75-.566-.8-.606.577.447.588.454a16.814,16.814,0,0,1-1.346-1.074q-1.275-1.038-2.51-2.124a89.472,89.472,0,0,1-9.2-9.394q-1.064-1.258-2.082-2.553c-.294-.374-.83-1.132.355.464-.156-.21-.318-.416-.475-.625q-.567-.752-1.119-1.516-1.932-2.674-3.674-5.479a95.866,95.866,0,0,1-6.847-13.253l.663,1.572a93.5,93.5,0,0,1-6.439-23.541l.235,1.749a85.849,85.849,0,0,1-.042-22.487l-.235,1.749a83.047,83.047,0,0,1,5.785-21.016l-.663,1.572a89.084,89.084,0,0,1,6.312-12.154q1.812-2.915,3.84-5.688.461-.63.932-1.253c.284-.375,1.066-1.31-.268.341.131-.162.257-.328.385-.492q1.113-1.41,2.28-2.776a94.209,94.209,0,0,1,9.547-9.667q1.293-1.133,2.627-2.218.606-.493,1.22-.976c.164-.129.33-.255.493-.385-1.752,1.394-.487.38-.089.081q2.749-2.06,5.645-3.913a90.907,90.907,0,0,1,13.5-7.112l-1.572.663c6.807-2.858,36.965-9.6,42.45-8.868l-1.749-.235a93.179,93.179,0,0,1,23.438,6.476l-1.572-.663a96.765,96.765,0,0,1,11.053,5.552q2.669,1.565,5.234,3.3,1.214.822,2.4,1.68.594.429,1.181.867c.217.162.433.327.65.49.912.683-1.256-.99-.3-.234a97.236,97.236,0,0,1,9.094,8.117q2.106,2.145,4.067,4.425,1.006,1.17,1.971,2.375c.32.4,1.408,1.843.074.074.326.432.656.862.978,1.3a85.942,85.942,0,0,1,7.361,11.875,6.626,6.626,0,0,0,9,2.36A6.734,6.734,0,0,0,664.436,547.108Z" transform="translate(-208.401 -204.955)" fill="#050605"/>
    <path id="Path_38" data-name="Path 38" d="M591.33,660.177a3.316,3.316,0,0,1-2.4-5.747l.227-.9-.09-.217c-3.052-7.279-22.53,13.012-23.372,19.852a26.34,26.34,0,0,0,.462,9.059,105.607,105.607,0,0,1-9.607-43.862,101.932,101.932,0,0,1,.632-11.371q.524-4.643,1.453-9.22a106.828,106.828,0,0,1,21.185-45.277c6.03.336,11.314-.582,11.824-12.268.091-2.079,1.633-3.879,1.972-5.926-.576.075-1.161.123-1.736.16l-.547.028-.068,0a3.285,3.285,0,0,1-2.7-5.352l.746-.917c.378-.472.764-.934,1.142-1.406a1.632,1.632,0,0,0,.123-.142c.434-.538.868-1.066,1.3-1.6a9.5,9.5,0,0,0-3.114-3.01c-4.35-2.548-10.352-.783-13.494,3.152s-3.746,9.456-2.652,14.372a38.066,38.066,0,0,0,5.266,11.739c-.236.3-.481.595-.717.9A107.525,107.525,0,0,0,565.944,590c.892-6.964-10.01-32.112-14.226-37.438-5.064-6.4-15.448-3.606-16.34,4.5q-.013.118-.025.236.939.53,1.839,1.125a4.5,4.5,0,0,1-1.813,8.184l-.092.014C526.9,578.59,553.775,609.74,560.5,602.746a109.746,109.746,0,0,0-5.907,27.8,104.087,104.087,0,0,0,.076,16.807l-.028-.2c-1.494-12.177-27.132-30.282-34.619-28.775-4.313.869-8.561.671-7.906,5.022q.016.1.032.208a30.217,30.217,0,0,1,3.388,1.633q.939.53,1.839,1.125a4.5,4.5,0,0,1-1.813,8.184l-.092.014-.189.028c-3.815,13.128,24.48,34.315,41.682,27.574h.01a109.714,109.714,0,0,0,7.37,21.516h26.328c.094-.293.179-.595.264-.887a29.912,29.912,0,0,1-7.285-.434c1.953-2.4,3.907-4.813,5.86-7.21a1.66,1.66,0,0,0,.123-.142c.991-1.227,1.991-2.444,2.982-3.671h0a43.818,43.818,0,0,0-1.284-11.162Zm-30.149-59.309.014-.019-.014.038Zm-5.832,52.571-.227-.509c.01-.368.01-.736,0-1.114,0-.1-.019-.208-.019-.311.085.651.16,1.3.255,1.953Z" transform="translate(-211.952 -210.66)" fill="#e4021b"/>
    <circle id="Ellipse_38" data-name="Ellipse 38" cx="9.649" cy="9.649" r="9.649" transform="translate(73.902 375.433)" fill="#050605"/>
    <circle id="Ellipse_39" data-name="Ellipse 39" cx="9.649" cy="9.649" r="9.649" transform="translate(189.69 480.695)" fill="#050605"/>
    <circle id="Ellipse_40" data-name="Ellipse 40" cx="9.649" cy="9.649" r="9.649" transform="translate(629.157 480.695)" fill="#050605"/>
    <circle id="Ellipse_41" data-name="Ellipse 41" cx="9.649" cy="9.649" r="9.649" transform="translate(652.841 357.89)" fill="#050605"/>
    <circle id="Ellipse_42" data-name="Ellipse 42" cx="9.649" cy="9.649" r="9.649" transform="translate(624.771 268.417)" fill="#050605"/>
    <path id="Path_39" data-name="Path 39" d="M431.493,582.078a9.6,9.6,0,1,1-.184-1.895,9.6,9.6,0,0,1,.184,1.895Z" transform="translate(-199.699 -214.539)" fill="#050605"/>
    <circle id="Ellipse_43" data-name="Ellipse 43" cx="9.649" cy="9.649" r="9.649" transform="translate(415.125 296.487)" fill="#050605"/>
    <path id="Path_40" data-name="Path 40" d="M542.493,512.078a9.6,9.6,0,1,1-.184-1.895A9.6,9.6,0,0,1,542.493,512.078Z" transform="translate(-213.332 -205.942)" fill="#050605"/>
    <path id="Path_41" data-name="Path 41" d="M400.493,480.078a9.6,9.6,0,1,1-.184-1.895A9.6,9.6,0,0,1,400.493,480.078Z" transform="translate(-195.892 -202.012)" fill="#050605"/>
    <circle id="Ellipse_44" data-name="Ellipse 44" cx="9.649" cy="9.649" r="9.649" transform="translate(516.001 378.942)" fill="#050605"/>
    <circle id="Ellipse_45" data-name="Ellipse 45" cx="14.035" cy="14.035" r="14.035" transform="translate(359.863 282.452)" fill="#050605"/>
    <path id="Path_42" data-name="Path 42" d="M923.385,734.975l-752.4.27a1.044,1.044,0,1,1,0-2.089l752.4-.27a1.044,1.044,0,1,1,0,2.089Z" transform="translate(-169.934 -234.244)" fill="#cacaca"/>
  </g>
</svg>
