<svg xmlns="http://www.w3.org/2000/svg" width="50" height="25" viewBox="0 0 50 25">
  <path id="Path_48" data-name="Path 48" d="M8.831,8.908h4.263v3.05l3.714-3.05h4.516l-4.516,3.769,4.516,7.5H16.765l-3.671-6.716v6.716H8.831ZM30.988,14.87l-2.279,1.919L26.556,14.87v5.311H22.379V8.908h4.178v2.056l2.153,2.056,2.279-2.056V8.908H35.5v6.356L46.1,2.963l-1.371-.154L49.051,0,47.721,4.214l-.8-.822L42.108,8.908h3.735l4.136,4.3h-4.3l-1.1-1.046H42.552l-2.026,2.364,2.068,2.4h2.026l1.1-1.1H50l-4.157,4.358H41.032l-4.157-4.814L35.5,16.892v3.29s-2.089-.017-3.587,0c-1.786,1.645-7.316,5.832-18.485,4.591C3.4,23.658.37,18.274.032,15.932-.491,10.267,5.4,6.3,13.769,5.173c8.621-1.034,13.5,2.056,14.94,3.461a18.024,18.024,0,0,0-9.158-2.912c-3.457-.175-8.428.162-12.618,3.186C3.675,11.26,2.6,14.391,3.809,17.3c2.417,5.826,10.445,6.8,12.408,6.99,9.58.727,14.771-4.626,14.771-4.626Z" transform="translate(0 0.001)" fill="#e4021b"/>
</svg>
