<svg xmlns="http://www.w3.org/2000/svg" width="36" height="44.418" viewBox="0 0 36 44.418">
  <g id="Group_551" data-name="Group 551" transform="translate(-850 -752)">
    <circle id="Ellipse_34" data-name="Ellipse 34" cx="18" cy="18" r="18" transform="translate(850 752)" fill="rgba(255,145,0,0.2)"/>
    <g id="award" transform="translate(860.572 764)">
      <path id="Ellipse_35" data-name="Ellipse 35" d="M9.839-.75A10.609,10.609,0,1,1-.75,9.859,10.611,10.611,0,0,1,9.839-.75Zm0,19.164A8.555,8.555,0,1,0,1.3,9.859,8.557,8.557,0,0,0,9.839,18.414Z" transform="translate(5 1)" fill="#f17f1b"/>
      <path id="Path_16" data-name="Path 16" d="M7.274,27.667a1.025,1.025,0,0,1-1.015-1.162l1.652-12.47a1.024,1.024,0,1,1,2.03.27L8.569,24.665l5.005-3.011a1.022,1.022,0,0,1,1.054,0l5.006,3.011L18.261,14.292a1.024,1.024,0,1,1,2.03-.27l1.652,12.484A1.024,1.024,0,0,1,20.4,27.521l-6.3-3.79-6.3,3.79A1.021,1.021,0,0,1,7.274,27.667Z" transform="translate(0.738 4.751)" fill="#f17f1b"/>
    </g>
  </g>
</svg>
