<svg xmlns="http://www.w3.org/2000/svg" xmlns:xlink="http://www.w3.org/1999/xlink" width="32" height="32" viewBox="0 0 32 32">
  <defs>
    <clipPath id="clip-path">
      <rect id="Rectangle_258" data-name="Rectangle 258" width="24" height="24" transform="translate(788 978)" fill="none"/>
    </clipPath>
  </defs>
  <g id="Group_483" data-name="Group 483" transform="translate(-1055 -753)">
    <circle id="Ellipse_28" data-name="Ellipse 28" cx="16" cy="16" r="16" transform="translate(1055 753)" fill="rgba(228,2,27,0.08)"/>
    <g id="Mask_Group_11" data-name="Mask Group 11" transform="translate(271 -221)" clip-path="url(#clip-path)">
      <path id="phone" d="M22,16.92v3a2,2,0,0,1-2.18,2,19.79,19.79,0,0,1-8.63-3.07,19.5,19.5,0,0,1-6-6A19.79,19.79,0,0,1,2.12,4.18,2,2,0,0,1,4.11,2h3a2,2,0,0,1,2,1.72,12.84,12.84,0,0,0,.7,2.81,2,2,0,0,1-.45,2.11L8.09,9.91a16,16,0,0,0,6,6l1.27-1.27a2,2,0,0,1,2.11-.45,12.84,12.84,0,0,0,2.81.7A2,2,0,0,1,22,16.92Z" transform="translate(788.388 978.5)" fill="none" stroke="#e4021b" stroke-linecap="round" stroke-linejoin="round" stroke-width="1.5"/>
    </g>
  </g>
</svg>
